<svg xmlns="http://www.w3.org/2000/svg" width="12" height="12"><path d="M11.858 4.418q-.268-.83-.959-1.5-.702-.664-1.687-1.098-.97-.434-2.152-.585-1.182-.162-2.424.011-.88.129-1.639.412-.762.28-1.359.676-.596.4-1.015.902Q.2 3.726 0 4.278q.245-.306.585-.563.34-.268.751-.48.42-.21.899-.362.494-.15 1.03-.234.997-.14 1.945-.01.947.127 1.733.479.796.34 1.359.88t.774 1.204q.211.68.023 1.321-.2.646-.714 1.182-.502.528-1.299.913-.785.374-1.778.514-.328.045-.657.072-.317.01-.63 0 .736.162 1.532.2.808.034 1.616-.083 1.242-.178 2.224-.657.982-.468 1.616-1.125.63-.669.88-1.477.234-.796-.023-1.638zM1.778 9.639l5.724 1.205-1.277-1.745.657-2.518Z"/></svg>